<svg width="350" height="196" viewBox="0 0 350 196" fill="none" xmlns="http://www.w3.org/2000/svg">
<circle cx="174.5" cy="97.5" r="78.5" fill="white"/>
<circle cx="174.5" cy="97.5" r="70.75" stroke="#4791CE" stroke-opacity="0.27" stroke-width="15.5"/>
<path d="M174.5 26.7839C174.5 22.485 177.994 18.96 182.271 19.3855C195.811 20.7325 208.817 25.5824 219.981 33.5174C233.266 42.961 243.282 56.306 248.639 71.7002C253.996 87.0945 254.428 103.775 249.876 119.426C245.323 135.077 236.012 148.922 223.233 159.041C210.455 169.16 194.843 175.051 178.565 175.895C162.288 176.739 146.151 172.495 132.394 163.752C118.637 155.009 107.944 142.201 101.796 127.105C96.6313 114.42 94.8915 100.649 96.6839 87.1603C97.2501 82.8989 101.482 80.3063 105.666 81.2916C109.851 82.2769 112.393 86.4694 111.931 90.7435C110.817 101.065 112.269 111.545 116.215 121.234C121.143 133.336 129.716 143.604 140.744 150.613C151.773 157.622 164.71 161.025 177.759 160.348C190.809 159.671 203.324 154.949 213.569 146.837C223.813 138.725 231.278 127.625 234.928 115.077C238.577 102.53 238.231 89.158 233.936 76.8167C229.642 64.4754 221.612 53.7769 210.961 46.2062C202.434 40.145 192.566 36.3292 182.264 35.0485C177.998 34.5181 174.5 31.0828 174.5 26.7839Z" fill="#0E1555"/>
<path d="M145.949 86.7793L135.719 110H131.236L141.449 87.834H128.213V84.4062H145.949V86.7793ZM165.496 91.1562C165.496 92.4102 165.174 93.5293 164.529 94.5137C163.885 95.4863 163.006 96.2539 161.893 96.8164C163.229 97.4375 164.254 98.2871 164.969 99.3652C165.695 100.443 166.059 101.662 166.059 103.021C166.059 105.271 165.297 107.059 163.773 108.383C162.25 109.695 160.223 110.352 157.691 110.352C155.148 110.352 153.109 109.689 151.574 108.365C150.051 107.041 149.289 105.26 149.289 103.021C149.289 101.65 149.652 100.42 150.379 99.3301C151.105 98.2402 152.125 97.4023 153.438 96.8164C152.336 96.2539 151.463 95.4863 150.818 94.5137C150.186 93.5293 149.869 92.4102 149.869 91.1562C149.869 88.9766 150.572 87.248 151.979 85.9707C153.385 84.6934 155.283 84.0547 157.674 84.0547C160.076 84.0547 161.98 84.6934 163.387 85.9707C164.793 87.248 165.496 88.9766 165.496 91.1562ZM161.787 102.811C161.787 101.545 161.406 100.525 160.645 99.752C159.895 98.9668 158.898 98.5742 157.656 98.5742C156.414 98.5742 155.418 98.9609 154.668 99.7344C153.93 100.508 153.561 101.533 153.561 102.811C153.561 104.064 153.924 105.066 154.65 105.816C155.389 106.566 156.402 106.941 157.691 106.941C158.98 106.941 159.982 106.578 160.697 105.852C161.424 105.125 161.787 104.111 161.787 102.811ZM161.242 91.3145C161.242 90.2012 160.92 89.2871 160.275 88.5723C159.631 87.8457 158.764 87.4824 157.674 87.4824C156.584 87.4824 155.723 87.8281 155.09 88.5195C154.457 89.1992 154.141 90.1309 154.141 91.3145C154.141 92.4863 154.457 93.418 155.09 94.1094C155.734 94.8008 156.602 95.1465 157.691 95.1465C158.781 95.1465 159.643 94.8008 160.275 94.1094C160.92 93.418 161.242 92.4863 161.242 91.3145ZM172.773 105.5C173.57 105.5 174.186 105.729 174.619 106.186C175.053 106.631 175.27 107.193 175.27 107.873C175.27 108.541 175.053 109.098 174.619 109.543C174.186 109.977 173.57 110.193 172.773 110.193C172.012 110.193 171.408 109.977 170.963 109.543C170.518 109.109 170.295 108.553 170.295 107.873C170.295 107.193 170.512 106.631 170.945 106.186C171.379 105.729 171.988 105.5 172.773 105.5ZM196.926 86.7793L186.695 110H182.213L192.426 87.834H179.189V84.4062H196.926V86.7793ZM200.178 89.3281C200.178 87.7812 200.676 86.5156 201.672 85.5312C202.668 84.5352 203.975 84.0371 205.592 84.0371C207.232 84.0371 208.545 84.5352 209.529 85.5312C210.525 86.5156 211.023 87.8105 211.023 89.416V90.6816C211.023 92.2168 210.525 93.4766 209.529 94.4609C208.545 95.4453 207.244 95.9375 205.627 95.9375C204.045 95.9375 202.738 95.457 201.707 94.4961C200.688 93.5234 200.178 92.2168 200.178 90.5762V89.3281ZM203.166 90.6816C203.166 91.4902 203.389 92.1465 203.834 92.6504C204.291 93.1426 204.889 93.3887 205.627 93.3887C206.354 93.3887 206.939 93.1426 207.385 92.6504C207.83 92.1465 208.053 91.4668 208.053 90.6113V89.3281C208.053 88.5195 207.824 87.8633 207.367 87.3594C206.922 86.8555 206.33 86.6035 205.592 86.6035C204.854 86.6035 204.262 86.8613 203.816 87.377C203.383 87.8809 203.166 88.5488 203.166 89.3809V90.6816ZM212.482 103.725C212.482 102.154 212.992 100.883 214.012 99.9102C215.031 98.9375 216.332 98.4512 217.914 98.4512C219.508 98.4512 220.809 98.9375 221.816 99.9102C222.836 100.883 223.346 102.195 223.346 103.848V105.096C223.346 106.619 222.854 107.879 221.869 108.875C220.896 109.859 219.59 110.352 217.949 110.352C216.309 110.352 214.984 109.865 213.977 108.893C212.98 107.908 212.482 106.613 212.482 105.008V103.725ZM215.471 105.096C215.471 105.893 215.699 106.549 216.156 107.064C216.625 107.568 217.223 107.82 217.949 107.82C218.699 107.82 219.285 107.58 219.707 107.1C220.141 106.607 220.357 105.922 220.357 105.043V103.725C220.357 102.904 220.129 102.248 219.672 101.756C219.215 101.264 218.629 101.018 217.914 101.018C217.188 101.018 216.596 101.264 216.139 101.756C215.693 102.248 215.471 102.928 215.471 103.795V105.096ZM206.506 108.084L204.309 106.818L216.807 86.8145L219.004 88.0801L206.506 108.084Z" fill="#0E1555"/>
</svg>
