<svg width="350" height="196" viewBox="0 0 350 196" fill="none" xmlns="http://www.w3.org/2000/svg">
<path d="M321 4.16553H29.125V191H321V4.16553Z" fill="#E6E6E6"/>
<path d="M312.654 27.5991H37.4707V179.947H312.654V27.5991Z" fill="white"/>
<path d="M320.875 4H29V16.3936H320.875V4Z" fill="#0E1555"/>
<path d="M38.2152 12.6337C39.4845 12.6337 40.5135 11.6052 40.5135 10.3366C40.5135 9.06798 39.4845 8.03955 38.2152 8.03955C36.9459 8.03955 35.917 9.06798 35.917 10.3366C35.917 11.6052 36.9459 12.6337 38.2152 12.6337Z" fill="white"/>
<path d="M46.9379 12.6337C48.2072 12.6337 49.2361 11.6052 49.2361 10.3366C49.2361 9.06798 48.2072 8.03955 46.9379 8.03955C45.6686 8.03955 44.6396 9.06798 44.6396 10.3366C44.6396 11.6052 45.6686 12.6337 46.9379 12.6337Z" fill="white"/>
<path d="M55.6615 12.6337C56.9308 12.6337 57.9597 11.6052 57.9597 10.3366C57.9597 9.06798 56.9308 8.03955 55.6615 8.03955C54.3922 8.03955 53.3633 9.06798 53.3633 10.3366C53.3633 11.6052 54.3922 12.6337 55.6615 12.6337Z" fill="white"/>
<path d="M125.151 40.1299H71.3291V98.4919H125.151V40.1299Z" fill="#E6E6E6"/>
<path d="M201.973 40.1299H148.151V98.4919H201.973V40.1299Z" fill="#E6E6E6"/>
<path d="M278.794 40.1299H224.973V98.4919H278.794V40.1299Z" fill="#E6E6E6"/>
<path d="M125.151 109.056H71.3291V167.418H125.151V109.056Z" fill="#E6E6E6"/>
<path d="M201.973 109.056H148.151V167.418H201.973V109.056Z" fill="#E6E6E6"/>
<path d="M278.794 109.056H224.973V167.418H278.794V109.056Z" fill="#E6E6E6"/>
<path d="M92.2347 75.4191C97.2594 75.4191 101.333 71.3478 101.333 66.3257C101.333 61.3036 97.2594 57.2324 92.2347 57.2324C87.21 57.2324 83.1367 61.3036 83.1367 66.3257C83.1367 71.3478 87.21 75.4191 92.2347 75.4191Z" fill="#F8D6CB"/>
<path d="M88.6816 73.288C88.6816 73.288 89.8189 78.6871 89.8189 79.2555C89.8189 79.8238 95.2208 82.3813 95.2208 82.3813L100.054 81.5288L101.76 76.4138C101.76 76.4138 98.9169 72.1513 98.9169 70.4463L88.6816 73.288Z" fill="#F8D6CB"/>
<path d="M84.3458 58.9998C84.3458 58.9998 87.2343 52.7444 92.7708 54.188C98.3072 55.6315 101.436 57.7968 101.677 59.9621C101.918 62.1274 101.557 65.3755 101.557 65.3755C101.557 65.3755 100.955 60.9245 97.1036 61.8869C93.2522 62.8492 87.2343 62.1275 87.2343 62.1275L86.2715 70.7887C86.2715 70.7887 85.1883 69.2249 83.9847 70.1873C82.7811 71.1496 80.4943 60.9245 84.3458 58.9998Z" fill="#2F2E41"/>
<path d="M121.092 96.3059L118.819 86.0741C117.679 82.6636 114.839 79.8244 114.839 79.8244L100.818 74.896H100.814C100.787 76.1347 100.369 77.3333 99.6203 78.3208C98.8716 79.3083 97.8301 80.0345 96.6443 80.3958C92.378 81.8136 89.4409 77.0352 89.4409 77.0352L77.5889 86.0741C77.5889 86.0741 73.8943 89.2026 74.1802 95.1702L73.7871 98.4915H122.185L121.092 96.3059Z" fill="#0E1555"/>
<path d="M168.851 79.951C175.671 79.951 181.199 74.0851 181.199 66.849C181.199 59.613 175.671 53.7471 168.851 53.7471C162.031 53.7471 156.502 59.613 156.502 66.849C156.502 74.0851 162.031 79.951 168.851 79.951Z" fill="#2F2E41"/>
<path d="M179.808 86.676C183.396 86.676 186.304 83.7689 186.304 80.183C186.304 76.597 183.396 73.6899 179.808 73.6899C176.22 73.6899 173.312 76.597 173.312 80.183C173.312 83.7689 176.22 86.676 179.808 86.676Z" fill="#2F2E41"/>
<path d="M175.284 71.4868L178.765 80.5304L169.948 84.241L169.174 82.4871L166.468 76.3566L175.284 71.4868Z" fill="#784B51"/>
<path d="M168.323 77.4001C172.616 77.4001 176.096 73.9221 176.096 69.6317C176.096 65.3413 172.616 61.8633 168.323 61.8633C164.031 61.8633 160.551 65.3413 160.551 69.6317C160.551 73.9221 164.031 77.4001 168.323 77.4001Z" fill="#784B51"/>
<path d="M161.97 68.7799C166.856 65.5217 168.316 64.7428 173.915 66.0014L174.251 57.8364L159.781 60.8704L161.97 68.7799Z" fill="#2F2E41"/>
<path d="M193.379 87.2526L193.165 87.2776C193.159 87.2698 193.153 87.2626 193.147 87.2561C192.296 86.4062 188.237 84.8598 185.211 83.7884H185.207C183.285 83.1063 181.781 82.617 181.781 82.617L178.122 78.8564C177.2 79.8921 175.253 80.6921 173.402 81.2564C171.985 81.685 170.543 82.0285 169.085 82.2849H169.082L168.324 84.7026C168.324 84.7026 159.738 91.1988 159.045 91.8916H159.041V91.8988C158.986 91.9777 158.963 92.0748 158.977 92.1702V92.1881C158.544 94.2615 158.321 96.3733 158.312 98.4914H195.701V96.2986C195.701 93.2844 193.379 87.2526 193.379 87.2526Z" fill="#575A89"/>
<path d="M262.133 98.4915H243.646L242.628 88.4526L242.567 87.8419L242.442 86.6312L241.931 81.5707L241.291 87.0062L239.941 98.4915H236.582L236.707 94.9166L236.832 91.2918L236.886 89.8311L237.575 69.9605C237.522 66.8116 238.519 63.7346 240.409 61.2144C241.458 59.8493 242.812 58.7481 244.362 57.9985C245.912 57.2489 247.616 56.8716 249.338 56.8967C251.095 56.891 252.829 57.292 254.405 58.0684C255.981 58.8447 257.355 59.9753 258.421 61.3715C260.374 63.917 261.419 67.0421 261.39 70.2497L261.708 82.2778L262.133 98.4915Z" fill="#2F2E41"/>
<path d="M249.338 77.071C253.829 77.071 257.469 73.4322 257.469 68.9435C257.469 64.4547 253.829 60.8159 249.338 60.8159C244.847 60.8159 241.206 64.4547 241.206 68.9435C241.206 73.4322 244.847 77.071 249.338 77.071Z" fill="#C69076"/>
<path d="M245.272 74.749C245.272 74.749 247.596 82.5863 245.272 84.9084C242.949 87.2306 242.368 88.1014 242.368 88.1014L249.048 97.0997L260.664 82.8765C260.664 82.8765 252.533 80.5544 254.566 74.1685L245.272 74.749Z" fill="#C69076"/>
<path d="M270.359 98.4919H263.498L263.384 97.3169L263.28 96.2313L266.439 95.8348L270.248 95.3599L270.291 96.5777L270.359 98.4919Z" fill="#F4C39F"/>
<path d="M270.828 96.5195C270.828 96.5195 269.667 89.2627 268.796 86.36C267.924 83.4573 267.053 83.4573 267.053 83.4573C266.028 82.4324 263.562 82.2496 261.708 82.2781C260.407 82.2924 259.406 82.4067 259.406 82.4067L249.048 93.3277L243.831 86.3958V86.3922C243.362 86.4287 242.896 86.5088 242.441 86.6315C242.05 86.7312 241.666 86.8564 241.291 87.0065C239.675 87.6965 238.186 88.6513 236.885 89.8314H236.882C236.131 90.5064 235.688 91.0028 235.688 91.0028C234.539 93.3901 233.673 95.9035 233.108 98.4918H266.303L266.378 96.999V96.9961L270.828 96.5195Z" fill="#0E1555"/>
<path d="M242.512 67.6376C247.764 64.8076 249.922 64.9274 256.452 67.6376L258.195 63.3944C258.194 62.5954 257.876 61.8294 257.311 61.2645C256.746 60.6995 255.979 60.3818 255.18 60.3809H243.495C242.695 60.3818 241.929 60.6995 241.364 61.2645C240.798 61.8294 240.48 62.5954 240.479 63.3944L242.512 67.6376Z" fill="#2F2E41"/>
<path d="M97.5284 123.181C97.0957 123.146 96.6625 123.243 96.286 123.459C95.9289 123.763 95.6422 124.142 95.4457 124.568C94.5365 126.163 93.3056 127.553 91.8311 128.648C90.7571 129.435 89.3916 130.415 89.5753 131.865C89.6723 132.344 89.8493 132.803 90.0989 133.223C91.0897 135.222 93.7934 136.767 93.5275 139.048C94.5118 137.401 93.1952 136.587 94.1796 134.939C94.6483 134.155 95.4627 133.27 96.1705 133.762C96.4075 133.927 96.5631 134.223 96.8098 134.368C97.3986 134.713 98.025 134.053 98.5462 133.585C100.343 131.973 102.899 132.395 105.136 132.898C106.191 133.135 107.351 133.446 107.975 134.455C108.796 135.781 107.196 137.213 106.791 138.712C106.758 138.84 106.757 138.974 106.787 139.102C106.817 139.231 106.878 139.35 106.964 139.45C107.05 139.55 107.159 139.627 107.282 139.676C107.405 139.725 107.537 139.743 107.669 139.729C108.34 139.663 109.134 139.608 109.174 139.314C110.019 139.344 111.053 139.249 111.415 138.37C111.525 138.022 111.584 137.66 111.588 137.295C111.721 135.819 112.348 134.473 112.763 133.068C113.178 131.663 113.359 130.017 112.658 128.771C112.408 128.357 112.099 127.981 111.74 127.656C107.764 123.81 102.535 123.176 97.5284 123.181Z" fill="#2F2E41"/>
<path d="M94.392 141.929C94.392 141.929 95.2568 149.132 92.0859 149.708C88.915 150.285 94.9685 160.081 94.9685 160.081L109.382 161.809L105.923 150.285C105.923 150.285 103.616 149.42 105.058 143.658C106.499 137.896 94.392 141.929 94.392 141.929Z" fill="#784B51"/>
<path d="M100.877 146.683C105.654 146.683 109.525 142.813 109.525 138.04C109.525 133.266 105.654 129.396 100.877 129.396C96.1013 129.396 92.2295 133.266 92.2295 138.04C92.2295 142.813 96.1013 146.683 100.877 146.683Z" fill="#784B51"/>
<path d="M85.9932 167.418C87.5225 161.407 89.6342 153.311 89.6342 153.311C89.6342 153.311 90.456 153.479 91.7494 153.668C93.6389 153.949 95.5429 154.122 97.4521 154.186C99.8961 154.254 102.469 154.093 104.459 153.404C105.209 153.163 105.91 152.789 106.528 152.3C106.788 152.091 107.021 151.85 107.221 151.582C110.68 146.972 112.12 164.546 112.12 164.546L112.388 167.418L85.9932 167.418Z" fill="#0E1555"/>
<path d="M113.624 185.988C113.51 185.988 113.396 185.992 113.281 185.999L113.446 185.692C113.503 185.788 113.56 185.888 113.624 185.988Z" fill="#FDE0CA"/>
<path d="M97.9487 125.443C97.6001 125.417 97.251 125.485 96.9373 125.639C96.6538 125.846 96.42 126.114 96.2532 126.423C95.4844 127.578 94.4821 128.561 93.3108 129.307C92.4365 129.863 91.325 130.556 91.4746 131.581C91.5558 131.924 91.7003 132.25 91.9007 132.54C92.7101 133.967 93.0323 135.619 92.8186 137.246L95.2226 133.753C95.6042 133.199 96.2671 132.573 96.8433 132.921C97.0362 133.038 97.1629 133.247 97.3638 133.349C97.8431 133.593 98.353 133.127 98.7772 132.796C100.24 131.657 102.321 131.955 104.141 132.31C105.001 132.478 105.945 132.698 106.453 133.411C107.297 134.595 106.416 136.307 106.908 137.676C107.046 137.579 107.163 137.456 107.253 137.313C107.342 137.171 107.402 137.011 107.429 136.845C108.116 136.867 108.958 136.799 109.253 136.178C109.342 135.935 109.39 135.678 109.394 135.418C109.502 134.375 110.012 133.424 110.35 132.431C110.688 131.438 110.835 130.274 110.265 129.394C110.056 129.095 109.804 128.83 109.517 128.606C106.281 125.887 102.025 125.439 97.9487 125.443Z" fill="#2F2E41"/>
<path d="M97.1301 153.597C95.1578 151.343 93.9858 148.057 93.9322 147.911V147.907C93.9322 147.907 90.7878 146.108 89.9232 147.836C89.0585 149.565 80.9868 153.886 80.1221 153.886C80.1152 153.889 80.108 153.891 80.1007 153.893C79.7577 154.007 75.4628 155.568 74.3587 161.378C74.0588 163.378 73.8988 165.396 73.8799 167.417H97.3874C97.6304 164.871 97.8126 162.489 97.884 160.432C97.9877 157.564 97.8876 155.336 97.4517 154.186C97.382 153.971 97.2729 153.771 97.1301 153.597Z" fill="#2F2E41"/>
<path d="M117.343 155.218C117.329 155.15 117.318 155.093 117.307 155.039C117.269 154.886 117.204 154.741 117.114 154.611C117.112 154.607 117.111 154.604 117.111 154.6C115.446 152.022 104.737 148.472 104.737 148.472L104.337 149.854C104.337 149.854 104.387 151.218 104.458 153.404C104.53 155.45 104.616 158.214 104.698 161.25C104.755 163.232 104.805 165.332 104.851 167.417H120.87C119.972 163.276 118.794 159.2 117.343 155.218Z" fill="#2F2E41"/>
<path d="M267.214 167.417L268.439 161.432L269.579 160.95L269.586 160.953C269.69 160.993 270.93 161.518 270.93 163.507C270.93 163.907 270.869 165.346 270.769 167.417H267.214Z" fill="#575A89"/>
<path d="M254.341 146.511C259.838 146.511 264.294 142.057 264.294 136.563C264.294 131.069 259.838 126.615 254.341 126.615C248.844 126.615 244.388 131.069 244.388 136.563C244.388 142.057 248.844 146.511 254.341 146.511Z" fill="#FDE0CA"/>
<path d="M260.562 142.366L259.732 159.361L246.876 151.9L248.535 142.366H260.562Z" fill="#FDE0CA"/>
<path d="M264.295 160.189L263.452 167.417H256.702L249.377 153.35L247.312 149.39L246.322 148.743L247.469 148.482L248.373 149.136L258.489 156.461L260.111 151.593L260.154 151.468L260.561 150.243L264.295 160.189Z" fill="#0E1555"/>
<path d="M248.328 126.822C248.328 126.822 249.572 120.605 256.622 121.848L255.793 122.263C255.793 122.263 262.428 121.434 261.599 125.164C261.599 125.164 266.99 128.48 265.746 132.211C265.014 134.373 264.459 136.591 264.087 138.843L262.843 137.599C262.843 137.599 261.599 129.309 254.134 130.138C248.535 130.76 246.254 133.402 245.671 135.306C245.403 136.202 245.06 137.073 244.646 137.911L244.181 138.014C244.181 138.014 241.692 128.895 248.328 126.822Z" fill="#2F2E41"/>
<path d="M269.586 160.953L269.579 160.95L264.295 156.043V152.729L260.214 149.515L260.153 151.468L259.732 164.75L252.946 155.421L248.373 149.136L247.551 148.011L247.751 146.958L245.218 149.825L236.049 156.7L235.263 157.289C234.361 158.191 233.53 159.161 232.776 160.189C232.53 160.557 231.408 163.485 229.946 167.417H270.769C270.869 165.346 270.93 163.907 270.93 163.507C270.93 161.518 269.69 160.993 269.586 160.953Z" fill="#2F2E41"/>
<path d="M174.242 125.636C167.498 125.636 162.03 131.7 162.03 139.182V148.686H164.955L166.648 145.165L166.225 148.686H185.024L186.563 145.485L186.179 148.686H188.295V141.223C188.295 132.615 182.004 125.636 174.242 125.636Z" fill="#2F2E41"/>
<path d="M164.387 167.417H156.444L156.369 160.943C156.365 160.875 156.365 160.811 156.365 160.743L157.955 158.954L157.984 158.921L164.055 162.764L164.387 167.417Z" fill="#D0CDE1"/>
<path d="M173.163 147.358C177.964 147.358 181.856 143.468 181.856 138.669C181.856 133.87 177.964 129.979 173.163 129.979C168.361 129.979 164.469 133.87 164.469 138.669C164.469 143.468 168.361 147.358 173.163 147.358Z" fill="#F4C39F"/>
<path d="M168.178 143.882C168.178 143.882 170.728 157.09 169.569 158.48C168.41 159.871 181.856 155.932 181.856 155.932C181.856 155.932 177.451 146.895 179.769 141.797L168.178 143.882Z" fill="#F4C39F"/>
<path d="M191.764 152.815H191.76C191.555 152.382 191.202 152.037 190.763 151.843C189.059 151.126 187.59 150.576 186.383 150.158C184.247 149.425 181.916 149.497 179.83 150.361C179.626 150.443 179.426 150.533 179.229 150.633C179.229 150.633 170.729 152.251 169.718 152.047C169.643 152.033 169.564 152.022 169.489 152.015C169.336 151.993 169.182 151.98 169.028 151.976C167.05 151.884 165.088 152.37 163.383 153.375C160.592 154.993 156.454 157.861 156.369 160.654L156.29 160.743L156.369 167.418H193.679C193.754 161.022 193.797 156.215 193.797 155.89C193.797 154.879 191.764 152.815 191.764 152.815Z" fill="#0E1555"/>
<path d="M177.714 129.367C177.127 128.578 176.365 127.936 175.489 127.489C174.612 127.042 173.645 126.802 172.661 126.79H172.421C167.798 126.79 164.051 130.97 164.051 136.128V136.128H165.6L165.85 134.225L166.217 136.128H175.403L176.173 134.518L175.981 136.128H177.788C178.631 140.314 177.42 144.5 174.153 148.686H177.231L178.771 145.466L178.386 148.686H184.255L185.409 141.28C185.409 135.733 182.185 131.03 177.714 129.367Z" fill="#2F2E41"/>
<path d="M179.402 130.147C181.928 130.147 183.976 128.1 183.976 125.575C183.976 123.05 181.928 121.003 179.402 121.003C176.876 121.003 174.828 123.05 174.828 125.575C174.828 128.1 176.876 130.147 179.402 130.147Z" fill="#2F2E41"/>
</svg>
