<svg width="314" height="370" viewBox="0 0 314 370" fill="none" xmlns="http://www.w3.org/2000/svg">
<g clip-path="url(#clip0)">
<mask id="mask0" mask-type="alpha" maskUnits="userSpaceOnUse" x="-562" y="-233" width="1440" height="603">
<rect x="-562" y="-233" width="1440" height="603" fill="#0E1555"/>
</mask>
<g mask="url(#mask0)">
<path d="M136.342 80.1188C137.221 77.8366 138.554 75.7566 140.26 74.0047C141.966 72.2527 144.011 70.8654 146.269 69.9266C150.008 68.1393 154.076 67.146 158.218 67.0095C162.36 66.8729 166.485 67.5959 170.334 69.1331C174.182 70.6702 177.671 72.9881 180.579 75.9405C183.487 78.8929 185.752 82.4158 187.23 86.2871C188.799 91.373 190.03 96.5566 190.917 101.804C191.811 107.128 194.477 111.993 198.483 115.611C203.904 119.852 211.35 119.876 218.168 120.864C227.469 122.105 236.231 125.947 243.444 131.947C250.661 138.037 255.274 146.659 256.335 156.042C256.889 161.849 255.901 168.09 258.311 173.343C260.455 178.162 265.057 181.487 266.961 186.354C267.779 188.673 268.022 191.157 267.67 193.591C267.317 196.025 266.38 198.337 264.937 200.329C261.998 204.275 257.71 207.002 252.889 207.991C245.468 209.581 237.324 207.654 230.481 210.858C226.216 212.858 222.771 216.714 218.144 217.485C214.5 217.828 210.85 216.881 207.832 214.81C202.238 211.1 197.179 206.641 192.796 201.558C187.729 196.634 183.315 191.079 179.665 185.029C175.791 178.477 171.543 172.154 166.942 166.09C162.967 160.355 153.835 160.379 150.461 154.283C144.149 142.886 152.63 119.948 149.811 107.732C148.939 103.025 146.461 98.7673 142.799 95.6842C138.101 91.5881 134.294 86.4317 136.342 80.1188Z" fill="#606161"/>
<path d="M136.342 80.1188C137.221 77.8366 138.554 75.7566 140.26 74.0047C141.966 72.2527 144.011 70.8654 146.269 69.9266C150.008 68.1393 154.076 67.146 158.218 67.0095C162.36 66.8729 166.485 67.5959 170.334 69.1331C174.182 70.6702 177.671 72.9881 180.579 75.9405C183.487 78.8929 185.752 82.4158 187.23 86.2871C188.799 91.373 190.03 96.5566 190.917 101.804C191.811 107.128 194.477 111.993 198.483 115.611C203.904 119.852 211.35 119.876 218.168 120.864C227.469 122.105 236.231 125.947 243.444 131.947C250.661 138.037 255.274 146.659 256.335 156.042C256.889 161.849 255.901 168.09 258.311 173.343C260.455 178.162 265.057 181.487 266.961 186.354C267.779 188.673 268.022 191.157 267.67 193.591C267.317 196.025 266.38 198.337 264.937 200.329C261.998 204.275 257.71 207.002 252.889 207.991C245.468 209.581 237.324 207.654 230.481 210.858C226.216 212.858 222.771 216.714 218.144 217.485C214.5 217.828 210.85 216.881 207.832 214.81C202.238 211.1 197.179 206.641 192.796 201.558C187.729 196.634 183.315 191.079 179.665 185.029C175.791 178.477 171.543 172.154 166.942 166.09C162.967 160.355 153.835 160.379 150.461 154.283C144.149 142.886 152.63 119.948 149.811 107.732C148.939 103.025 146.461 98.7673 142.799 95.6842C138.101 91.5881 134.294 86.4317 136.342 80.1188Z" fill="black"/>
<path d="M72.539 173.896C73.1753 169.014 74.7286 164.297 77.1171 159.993C81.1972 151.415 85.213 142.797 89.1646 134.139C91.1163 129.826 93.1885 125.513 94.9474 121.127C95.2985 119.767 95.9305 118.495 96.8027 117.393C98.152 116.043 100.272 115.417 101.622 114.14C105.718 110.574 106.176 104.502 106.296 99.0564C106.657 96.3871 106.141 93.6728 104.826 91.3219C103.389 89.6545 101.522 88.4129 99.429 87.7317C97.7491 86.8891 95.9095 86.4128 94.0318 86.3342C91.6352 86.5391 89.4132 87.6717 87.8393 89.4907C86.3034 91.3041 85.0151 93.3136 84.0082 95.4662C76.6111 109.514 68.8766 123.031 60.4433 136.428C54.8977 144.599 50.2906 153.368 46.7092 162.571C43.1652 171.834 42.8511 182.021 45.8176 191.485C47.2773 195.777 49.8658 199.598 53.3112 202.545C57.5978 205.679 62.5417 207.797 67.7682 208.737C89.3761 213.767 111.935 212.935 133.114 206.328C138.102 204.737 143.258 202.689 146.535 198.593C149.039 195.184 150.511 191.128 150.776 186.907C151.788 177.799 148.197 163.125 137.066 164.884C130.464 165.92 122.247 171.727 116.175 174.522C109.26 177.823 72.2258 178.907 72.539 173.896Z" fill="#C69076"/>
<path d="M294.838 662.544L290.5 663.171L289.898 647.364C289.898 647.364 282.477 652.665 279.923 655.147C277.369 657.629 250.165 669.435 242.648 664.496C235.13 659.556 271.249 631.486 271.249 631.486L214.673 468.916L172.459 368.633C172.459 368.633 85.8372 380.68 90.7767 391.836C95.2101 401.474 98.8245 474.94 101.379 494.963C101.532 496.551 101.856 498.118 102.342 499.638C102.359 499.725 102.359 499.815 102.342 499.903C104.752 502.312 108.968 506.095 109.33 511.035C109.691 515.974 107.74 537.539 107.74 537.539L103.933 538.334L100.318 521.058C100.318 521.058 98.2943 522.287 86.2709 530.696C74.2475 539.105 51.044 543.129 48.1285 538.551C45.213 533.973 67.2117 524.431 75.5004 515.324C83.7891 506.216 23.2383 386.126 35.6954 353.694C48.1526 321.262 148.436 296.131 148.436 296.131C148.436 296.131 215.902 289.071 221.998 296.492C228.094 303.914 251.033 354.682 246.358 361.814C241.684 368.946 258.189 465.567 271.875 482.964C285.561 500.361 290.5 552.623 289.272 567.465C288.043 582.308 294.211 623.703 294.211 623.703C294.211 623.703 298.886 629.968 299.512 634.04C300.138 638.112 294.838 662.544 294.838 662.544Z" fill="#496D89"/>
<path d="M242.817 367.692C242.817 367.692 233.492 369.861 232.408 371.427C231.324 372.993 230.384 384.631 232.408 389.595L238.456 387.571C238.456 387.571 236.914 378.415 238.311 375.523C239.709 372.632 249.034 371.331 249.034 371.331C250.747 370.745 252.561 370.512 254.367 370.643C256.173 370.775 257.934 371.27 259.544 372.097C261.155 372.925 262.582 374.069 263.74 375.461C264.898 376.853 265.764 378.464 266.286 380.198L271.876 378.945C271.876 378.945 267.996 366.512 260.985 365.596C253.973 364.68 242.817 367.692 242.817 367.692Z" fill="url(#paint0_linear)"/>
<path d="M124.557 196.714C122.703 201.186 121.541 205.915 121.111 210.738C120.75 220.135 125.93 228.712 130.749 236.832C139.062 251.289 146.531 266.734 147.11 283.312C147.351 290.54 146.676 298.708 151.808 303.744C155.085 306.949 159.928 307.889 164.506 308.563C179.509 310.582 194.696 310.833 209.757 309.31C214.166 308.877 219.226 307.816 221.25 303.865C222.162 301.571 222.437 299.073 222.045 296.636L216.696 221.628C215.949 211.003 215.154 200.256 211.877 190.16C209.01 181.51 199.613 172.21 193.42 165.535C188.453 160.297 182.167 156.494 175.221 154.527C168.276 152.56 160.929 152.5 153.953 154.355C131.159 159.632 131.376 177.751 124.557 196.714Z" fill="#80B8E4"/>
<path d="M116.153 189.896C113.971 184.498 110.416 179.763 105.84 176.162C111.68 171.106 118.304 167.037 125.454 164.114C127.863 163.102 153.91 152.765 156.247 153.922C158.584 155.078 136.321 167.102 137.164 169.463C138.846 173.083 139.568 177.074 139.26 181.053C138.585 183.831 137.453 186.477 135.911 188.884C133.613 193.002 131.538 197.241 129.694 201.582C128.851 203.558 126.49 213.34 124.586 213.629C120.538 214.304 117.406 193.004 116.153 189.896Z" fill="#80B8E4"/>
<path opacity="0.37" d="M198.003 269.168C198.316 275.77 198.533 282.758 195.376 288.444C193.762 291.408 191.377 293.866 189.69 296.805C188.74 298.208 188.169 299.834 188.034 301.523C187.899 303.212 188.204 304.907 188.919 306.443C191.907 311.455 199.81 310.347 204.195 314.202C205.852 315.844 207.106 317.848 207.858 320.057C215.944 339.419 218.278 360.701 214.58 381.355C213.761 385.812 212.869 390.993 215.809 394.414C219.52 398.751 226.387 397.258 232.025 396.27C237.302 395.354 243.832 394.438 245.711 389.403C246.278 387.181 246.278 384.853 245.711 382.632C242.145 358.32 240.892 333.695 236.892 309.455C232.892 285.216 225.929 260.976 212.123 240.664C209.565 236.696 206.458 233.11 202.894 230.014C197.304 225.364 195.882 225.942 196.22 233.122L198.003 269.168Z" fill="url(#paint1_linear)"/>
<path d="M204.171 236.303C209.255 243.146 211.4 251.7 213.375 259.988L237.471 360.2C237.827 362.225 238.652 364.139 239.88 365.79C241.615 367.814 244.699 369.091 244.844 371.741C244.844 372.753 244.506 373.862 245.109 374.657C245.711 375.452 246.771 375.404 247.711 375.331C251.144 375.25 254.533 374.539 257.71 373.235C259.283 372.548 260.644 371.453 261.653 370.063C262.661 368.674 263.28 367.041 263.445 365.332C263.445 360.826 259.493 357.525 256.674 353.983C249.711 345.237 249.639 333.093 249.277 321.937C247.831 279.722 236.892 237.315 213.785 201.943C211.93 199.1 209.255 195.968 205.906 196.474C204.094 196.94 202.49 198 201.352 199.486C197.473 203.702 190.533 212.666 190.678 218.762C190.823 225.484 200.412 231.267 204.171 236.303Z" fill="#C69076"/>
<path d="M129.786 101.225C127.569 102.502 124.967 103.876 124.317 106.334C124.131 107.298 123.994 108.271 123.907 109.249C123.16 113.682 118.317 116.863 118.341 121.297C118.365 125.73 122.63 128.405 125.569 131.489C129.276 135.593 131.697 140.695 132.533 146.163C133.341 151.593 133.679 157.083 133.545 162.571C133.545 167.559 134.244 173.51 138.677 175.8C140.766 176.718 143.083 176.987 145.327 176.571C147.954 176.312 150.457 175.328 152.556 173.727C153.843 172.517 154.876 171.063 155.596 169.45C156.316 167.837 156.707 166.096 156.748 164.33C156.833 160.808 156.615 157.286 156.098 153.801C155.761 150.116 155.712 146.41 155.953 142.717C155.895 141.317 156.114 139.919 156.598 138.604C157.081 137.289 157.82 136.083 158.772 135.055C160.505 133.879 162.454 133.059 164.507 132.645C167.627 131.869 170.344 129.952 172.121 127.272C172.948 125.914 173.305 124.321 173.135 122.739C172.965 121.158 172.278 119.677 171.181 118.526C169.085 116.622 165.423 116.116 164.724 113.369C164.602 112.611 164.602 111.838 164.724 111.08C165.088 104.594 163.027 98.2041 158.941 93.1535C155.809 89.2983 149.303 85.2504 144.364 88.3345C142.099 89.7802 140.388 92.7921 138.388 94.6233C135.769 97.1295 132.884 99.3432 129.786 101.225V101.225Z" fill="#C69076"/>
<path d="M149.04 87.3473C149.689 88.0431 150.181 88.8696 150.485 89.7714C150.788 90.6732 150.895 91.6294 150.799 92.5759C150.799 94.4794 150.22 96.3347 150.028 98.2141C149.712 100.11 150.125 102.056 151.184 103.66C152.919 105.925 156.557 106.744 157.088 109.539C157.142 110.433 156.98 111.327 156.615 112.145C156.25 112.963 155.693 113.681 154.991 114.237C153.585 115.338 152.399 116.695 151.497 118.237C151.264 118.681 151.204 119.197 151.329 119.683C151.618 120.502 152.606 120.791 153.473 120.888C154.696 121.069 155.943 120.995 157.136 120.671C158.782 119.955 160.315 119.006 161.69 117.852C164.124 116.189 166.912 115.116 169.834 114.719C171.148 114.738 172.427 114.294 173.448 113.466C173.884 112.911 174.152 112.242 174.219 111.539C174.388 108.949 173.811 106.365 172.556 104.093C170.52 99.72 168.169 95.5003 165.521 91.4675C164.718 90.0519 163.702 88.7679 162.509 87.6605C160.601 86.2631 158.372 85.3682 156.027 85.0583C152.991 84.4559 147.112 83.733 144.944 86.5521C145.639 86.3362 146.377 86.2958 147.092 86.4345C147.806 86.5733 148.476 86.8869 149.04 87.3473V87.3473Z" fill="black"/>
<path d="M108.731 52.7944C100.732 67.2514 97.0935 80.4314 100.587 82.3831C101.166 82.7204 105.069 84.7926 105.936 84.5516C110.298 83.0336 114.731 71.8535 121.405 59.8301C128.08 47.8067 136.2 37.5904 135.14 33.1087C134.947 32.2413 130.128 30.5546 129.574 30.2414C126.08 28.2897 116.707 38.3855 108.731 52.7944Z" fill="#68E1FD"/>
<path d="M126.726 61.9759C118.775 76.4329 109.426 86.5288 105.884 84.5771C105.538 84.3502 105.248 84.0482 105.036 83.6936C104.823 83.339 104.693 82.9408 104.655 82.529C103.788 77.9268 107.402 66.8913 114.028 54.9884C120.654 43.0854 127.714 34.5798 132.22 32.5559C132.623 32.3369 133.069 32.2084 133.527 32.1792C133.984 32.1501 134.443 32.2211 134.871 32.3872C138.388 34.3389 134.75 47.5912 126.726 61.9759Z" fill="black"/>
<path d="M123.016 60.1204C116.559 71.7824 109.234 80.6976 104.728 82.5529C103.86 77.9508 107.475 66.9153 114.101 55.0123C120.727 43.1094 127.787 34.6038 132.293 32.5798C133.256 37.1579 129.642 48.2898 123.016 60.1204Z" fill="white"/>
<path d="M101.595 82.7446L99.4502 87.7323L102.197 89.1057L104.534 84.1421L101.595 82.7446Z" fill="#68E1FD"/>
<path d="M88.1066 106.768L79.842 122.31C79.7271 122.662 79.6841 123.034 79.7156 123.404C79.7471 123.773 79.8525 124.133 80.0255 124.461C80.1986 124.789 80.4357 125.079 80.7228 125.314C81.01 125.549 81.3414 125.723 81.6973 125.828C84.3959 126.864 85.6248 126.02 85.6248 126.02L93.9135 110.479C93.9135 110.479 92.0582 104.889 88.1066 106.768Z" fill="black"/>
<path d="M302.546 370.972L191.107 400.842C184.589 402.589 180.721 409.29 182.468 415.809L201.024 485.037C202.771 491.556 209.472 495.424 215.991 493.676L327.429 463.806C333.948 462.059 337.816 455.358 336.069 448.84L317.512 379.611C315.765 373.093 309.064 369.225 302.546 370.972Z" fill="#606161"/>
<path d="M302.546 370.972L191.107 400.842C184.589 402.589 180.721 409.29 182.468 415.809L201.024 485.037C202.771 491.556 209.472 495.424 215.991 493.676L327.429 463.806C333.948 462.059 337.816 455.358 336.069 448.84L317.512 379.611C315.765 373.093 309.064 369.225 302.546 370.972Z" fill="url(#paint2_linear)"/>
<path d="M311.419 368.657L200.351 398.023C193.854 399.741 189.979 406.401 191.697 412.898L209.94 481.896C211.658 488.393 218.317 492.267 224.814 490.55L335.883 461.183C342.38 459.465 346.254 452.806 344.536 446.309L326.293 377.311C324.576 370.814 317.916 366.939 311.419 368.657Z" fill="#606161"/>
<path d="M311.419 368.657L200.351 398.023C193.854 399.741 189.979 406.401 191.697 412.898L209.94 481.896C211.658 488.393 218.317 492.267 224.814 490.55L335.883 461.183C342.38 459.465 346.254 452.806 344.536 446.309L326.293 377.311C324.576 370.814 317.916 366.939 311.419 368.657Z" fill="url(#paint3_linear)"/>
<path opacity="0.37" d="M90.7812 391.837C95.2147 401.475 98.829 474.941 101.383 494.964C97.0701 474.941 81.071 401.379 77.288 396.608C72.8787 390.97 73.5051 376.657 76.6857 371.091C79.8662 365.526 121.527 351.237 143.212 351.237C149.233 351.061 155.18 352.604 160.356 355.685C165.532 358.766 169.723 363.257 172.439 368.634C172.439 368.634 85.8417 380.633 90.7812 391.837Z" fill="url(#paint4_linear)"/>
</g>
</g>
<defs>
<linearGradient id="paint0_linear" x1="14157.7" y1="6925.91" x2="14844" y2="6925.91" gradientUnits="userSpaceOnUse">
<stop stop-color="#010101" stop-opacity="0"/>
<stop offset="0.95" stop-color="#010101"/>
</linearGradient>
<linearGradient id="paint1_linear" x1="19056.9" y1="41844.2" x2="20461.4" y2="41844.2" gradientUnits="userSpaceOnUse">
<stop stop-color="#010101" stop-opacity="0"/>
<stop offset="0.95" stop-color="#010101"/>
</linearGradient>
<linearGradient id="paint2_linear" x1="49918.9" y1="28252.1" x2="46239.8" y2="33248" gradientUnits="userSpaceOnUse">
<stop stop-color="#010101" stop-opacity="0"/>
<stop offset="0.95" stop-color="#010101"/>
</linearGradient>
<linearGradient id="paint3_linear" x1="45580.5" y1="28424.3" x2="54458.6" y2="28424.3" gradientUnits="userSpaceOnUse">
<stop stop-color="#010101" stop-opacity="0"/>
<stop offset="0.95" stop-color="#010101"/>
</linearGradient>
<linearGradient id="paint4_linear" x1="26530.3" y1="42086.3" x2="30537.9" y2="42086.3" gradientUnits="userSpaceOnUse">
<stop stop-color="#010101" stop-opacity="0"/>
<stop offset="0.95" stop-color="#010101"/>
</linearGradient>
<clipPath id="clip0">
<rect width="314" height="370" fill="white"/>
</clipPath>
</defs>
</svg>
