<svg width="304" height="222" viewBox="0 0 304 222" fill="none" xmlns="http://www.w3.org/2000/svg">
<path d="M86.9459 0.909668L38.3221 26.334C39.1535 27.7158 39.6892 29.2447 39.8974 30.83C40.1055 32.4153 39.9819 34.0248 39.5339 35.5632C39.0858 37.1016 38.3224 38.5374 37.289 39.7858C36.2555 41.0341 34.973 42.0695 33.5174 42.8306C32.0618 43.5917 30.4628 44.063 28.8151 44.2166C27.1673 44.3702 25.5044 44.2029 23.9249 43.7248C22.3453 43.2466 20.8813 42.4672 19.6195 41.4328C18.3577 40.3984 17.3238 39.1301 16.5791 37.7029L-0.000244141 46.3718L42.9454 122.909L129.892 77.4465L86.9459 0.909668Z" fill="#DCECF5"/>
<path d="M28.1369 42.649C33.6807 42.649 38.1748 38.3107 38.1748 32.959C38.1748 27.6074 33.6807 23.269 28.1369 23.269C22.593 23.269 18.0989 27.6074 18.0989 32.959C18.0989 38.3107 22.593 42.649 28.1369 42.649Z" fill="#4791CE"/>
<path d="M209.042 205.805L261.614 189.251C261.054 187.747 260.813 186.15 260.904 184.555C260.995 182.959 261.417 181.397 262.144 179.962C262.872 178.527 263.891 177.247 265.141 176.199C266.39 175.151 267.845 174.355 269.419 173.86C270.992 173.364 272.653 173.179 274.303 173.314C275.952 173.449 277.557 173.903 279.021 174.648C280.485 175.393 281.78 176.414 282.828 177.651C283.876 178.888 284.657 180.315 285.123 181.849L303.049 176.204L275.087 93.4519L181.08 123.053L209.042 205.805Z" fill="#DCECF5"/>
<path d="M273.279 195.031C278.823 195.031 283.317 190.693 283.317 185.341C283.317 179.99 278.823 175.651 273.279 175.651C267.736 175.651 263.241 179.99 263.241 185.341C263.241 190.693 267.736 195.031 273.279 195.031Z" fill="#4791CE"/>
<path d="M276.053 46.3092H33.3237V152.761H276.053V46.3092Z" fill="#444444"/>
<path d="M272.048 50.1752H37.3276V146.815H272.048V50.1752Z" fill="white"/>
<path d="M248.176 142.205H225.381V149.639H248.176V142.205Z" fill="#444444"/>
<path d="M224.149 147.855H207.516V149.937H224.149V147.855Z" fill="#4791CE"/>
<path d="M56.4253 86.7499H146.063L159.96 93.2854L182.102 103.699L196.58 77.5319H237.548" stroke="#444444" stroke-width="2" stroke-miterlimit="10"/>
<path d="M91.6726 86.7493L98.3184 101.914H114.644" stroke="#444444" stroke-width="2" stroke-miterlimit="10"/>
<path d="M116.587 86.7494L139.286 74.8551H155.304" stroke="#444444" stroke-width="2" stroke-miterlimit="10"/>
<path d="M91.543 89.4246C93.0741 89.4246 94.3153 88.2264 94.3153 86.7483C94.3153 85.2702 93.0741 84.072 91.543 84.072C90.0119 84.072 88.7708 85.2702 88.7708 86.7483C88.7708 88.2264 90.0119 89.4246 91.543 89.4246Z" fill="#4791CE"/>
<path d="M117.416 89.4246C118.947 89.4246 120.189 88.2264 120.189 86.7483C120.189 85.2702 118.947 84.072 117.416 84.072C115.885 84.072 114.644 85.2702 114.644 86.7483C114.644 88.2264 115.885 89.4246 117.416 89.4246Z" fill="#4791CE"/>
<path d="M159.925 93.2906L161.773 119.755H177.791" stroke="#444444" stroke-width="2" stroke-miterlimit="10"/>
<path d="M190.773 88.0259L173.169 74.8551H189.803" stroke="#444444" stroke-width="2" stroke-miterlimit="10"/>
<path d="M219.852 77.5319L236.932 90.6155H252.95" stroke="#444444" stroke-width="2" stroke-miterlimit="10"/>
<path d="M159.926 95.9668C161.457 95.9668 162.698 94.7686 162.698 93.2906C162.698 91.8126 161.457 90.6144 159.926 90.6144C158.395 90.6144 157.154 91.8126 157.154 93.2906C157.154 94.7686 158.395 95.9668 159.926 95.9668Z" fill="#4791CE"/>
<path d="M219.682 80.2076C221.214 80.2076 222.455 79.0094 222.455 77.5314C222.455 76.0533 221.214 74.8551 219.682 74.8551C218.151 74.8551 216.91 76.0533 216.91 77.5314C216.91 79.0094 218.151 80.2076 219.682 80.2076Z" fill="#4791CE"/>
<path d="M190.728 90.6145C192.259 90.6145 193.501 89.4163 193.501 87.9383C193.501 86.4603 192.259 85.2621 190.728 85.2621C189.197 85.2621 187.956 86.4603 187.956 87.9383C187.956 89.4163 189.197 90.6145 190.728 90.6145Z" fill="#4791CE"/>
<path d="M39.6143 97.0433C44.9107 97.0433 49.2043 92.9013 49.2043 87.7919C49.2043 82.6824 44.9107 78.5404 39.6143 78.5404C34.318 78.5404 30.0244 82.6824 30.0244 87.7919C30.0244 92.9013 34.318 97.0433 39.6143 97.0433Z" fill="#62412A"/>
<path d="M36.1523 142.533C36.0315 142.533 35.9102 142.528 35.7883 142.517C35.1852 142.469 34.5995 142.298 34.0696 142.016C33.5397 141.733 33.0776 141.346 32.7136 140.88C32.3496 140.414 32.0918 139.878 31.9572 139.309C31.8226 138.74 31.8142 138.149 31.9326 137.577C31.9606 137.444 31.9958 137.312 32.038 137.183L17.8841 121.034C17.4229 120.504 17.1512 119.844 17.1094 119.153C17.0676 118.462 17.2579 117.776 17.652 117.198L17.6776 117.167L30.4179 105.049C31.1136 104.388 32.0527 104.021 33.029 104.028C34.0052 104.035 34.9387 104.415 35.6241 105.086C36.3095 105.756 36.6909 106.662 36.6844 107.604C36.6778 108.546 36.2839 109.447 35.5892 110.108C35.5732 110.124 35.5571 110.139 35.5408 110.154L26.3135 118.616L36.4152 134.257C36.6065 134.266 36.7969 134.289 36.9849 134.324C38.0298 134.525 38.96 135.094 39.5947 135.92C40.2294 136.745 40.5235 137.769 40.4197 138.792C40.3159 139.815 39.8217 140.764 39.0331 141.456C38.2445 142.147 37.2178 142.531 36.1523 142.533Z" fill="#62412A"/>
<path d="M55.4076 216.547H60.1947L62.4718 198.735L55.4067 198.735L55.4076 216.547Z" fill="#62412A"/>
<path d="M54.188 215.039L63.615 215.039H63.6154C64.4043 215.039 65.1855 215.189 65.9144 215.48C66.6433 215.771 67.3055 216.198 67.8634 216.736C68.4213 217.275 68.8638 217.913 69.1657 218.617C69.4676 219.32 69.6231 220.073 69.6231 220.834V221.023L54.1883 221.023L54.188 215.039Z" fill="#0E1555"/>
<path d="M7.8291 210.162L11.9421 212.524L23.3452 198.344L17.2747 194.857L7.8291 210.162Z" fill="#62412A"/>
<path d="M7.58007 208.264L15.6801 212.916L15.6804 212.916C17.0494 213.703 18.0385 214.982 18.4302 216.471C18.8218 217.961 18.5839 219.54 17.7688 220.861L17.7687 220.861L17.6688 221.023L4.40674 213.405L7.58007 208.264Z" fill="#0E1555"/>
<path d="M61.3258 210.255H55.9656C55.5315 210.256 55.1127 210.102 54.7899 209.822C54.4672 209.542 54.2636 209.156 54.2184 208.74L48.8145 159.737C48.8009 159.613 48.7456 159.498 48.6571 159.408C48.5686 159.318 48.4519 159.258 48.3249 159.239C48.1979 159.219 48.0678 159.24 47.9545 159.299C47.8413 159.358 47.7512 159.451 47.6983 159.564L37.9495 180.388L20.6899 207.538C20.4665 207.886 20.1207 208.145 19.7156 208.267C19.3106 208.389 18.8736 208.367 18.4845 208.203L11.5894 205.277C11.3614 205.18 11.1574 205.038 10.9908 204.859C10.8242 204.68 10.6989 204.469 10.6232 204.24C10.5475 204.011 10.5231 203.77 10.5516 203.531C10.5801 203.292 10.6609 203.062 10.7886 202.856L26.655 177.227L31.5211 155.633C29.9906 146.269 36.5516 132.347 36.6181 132.207L36.6506 132.139L54.723 125.324L54.8137 125.432C61.9409 147.995 66.284 172.277 63.0772 208.702C63.0377 209.125 62.8364 209.518 62.5125 209.805C62.1887 210.093 61.7656 210.253 61.3258 210.255Z" fill="#0E1555"/>
<path d="M35.9218 134.42L35.8377 134.25C35.7974 134.168 31.7789 125.992 28.6811 117.253C28.0858 115.563 27.8607 113.772 28.0202 111.994C28.1797 110.216 28.7202 108.489 29.6076 106.923C30.5065 105.34 31.7363 103.955 33.219 102.855C34.7017 101.756 36.4051 100.965 38.2212 100.533C41.374 99.8039 44.6934 100.192 47.5746 101.626C50.4557 103.06 52.707 105.445 53.9181 108.346C56.3753 114.274 55.5922 120.601 54.8552 125.577L54.8406 125.677L54.7466 125.72L35.9218 134.42Z" fill="#4791CE"/>
<path d="M51.2423 82.5657H36.0146V76.1623C39.357 74.8813 42.6276 73.7919 44.6046 76.1623C46.3651 76.1623 48.0534 76.8369 49.2982 78.0378C50.543 79.2387 51.2423 80.8674 51.2423 82.5657H51.2423Z" fill="black"/>
<path d="M35.1714 75.032C26.0681 75.032 23.52 86.0399 23.52 92.2501C23.52 95.7134 25.1436 96.9521 27.6949 97.3713L28.5959 92.7355L30.7062 97.5708C31.4229 97.5742 32.1757 97.5608 32.9563 97.5468L33.6718 96.1255L35.2673 97.5213C41.6577 97.5305 46.8227 98.4292 46.8227 92.2501C46.8227 86.0399 44.5881 75.032 35.1714 75.032Z" fill="black"/>
<path d="M75.6341 87.3513C75.6919 87.4536 75.7454 87.5587 75.7945 87.6669C76.0395 88.2008 76.1648 88.7786 76.1621 89.3624C76.1595 89.9463 76.029 90.523 75.7792 91.0549C75.5294 91.5867 75.166 92.0616 74.7127 92.4485C74.2593 92.8353 73.7264 93.1254 73.1488 93.2997C73.0144 93.3398 72.8779 93.3731 72.7399 93.3994L64.8353 113.124C64.574 113.769 64.1041 114.315 63.4955 114.682C62.8869 115.049 62.172 115.217 61.4568 115.16L61.4171 115.153L44.2845 110.177C43.3492 109.906 42.5642 109.287 42.102 108.457C41.6398 107.627 41.5384 106.653 41.82 105.751C42.1016 104.849 42.7432 104.092 43.6037 103.646C44.4642 103.2 45.473 103.102 46.4082 103.374C46.4296 103.38 46.4509 103.386 46.4722 103.393L58.5944 107.147L67.9794 91.0966C67.8964 90.93 67.8257 90.758 67.7678 90.5818C67.4499 89.6007 67.5212 88.5407 67.968 87.6075C68.4147 86.6744 69.205 85.9347 70.1854 85.5321C71.1657 85.1295 72.2662 85.0927 73.2731 85.4289C74.28 85.765 75.1214 86.4502 75.6341 87.3513Z" fill="#62412A"/>
</svg>
