<svg width="954" height="565" viewBox="0 0 954 565" fill="none" xmlns="http://www.w3.org/2000/svg">
<path d="M232 564.457C360.13 564.457 464 559.084 464 552.457C464 545.829 360.13 540.457 232 540.457C103.87 540.457 0 545.829 0 552.457C0 559.084 103.87 564.457 232 564.457Z" fill="#0E1555"/>
<path d="M339.899 306.101L326.561 299.432L337.676 269.421L340.606 254.286C340.986 252.32 341.876 250.488 343.187 248.973C344.497 247.458 346.182 246.314 348.073 245.655C349.964 244.995 351.995 244.844 353.964 245.215C355.932 245.587 357.768 246.468 359.288 247.772V247.772C361.542 249.703 362.957 252.435 363.234 255.39C363.512 258.345 362.631 261.292 360.777 263.609L349.903 277.202L339.899 306.101Z" fill="#7D503B"/>
<path d="M344.35 302.767L341.89 310.467L330.85 345.057C329.769 348.448 327.733 351.455 324.986 353.718C322.238 355.981 318.896 357.402 315.361 357.813C311.825 358.224 308.246 357.606 305.054 356.033C301.861 354.46 299.189 352 297.36 348.947L261.57 287.607C260.998 286.651 260.509 285.647 260.11 284.607C258.381 280.067 258.467 275.036 260.351 270.559C262.234 266.081 265.771 262.502 270.225 260.564C274.68 258.627 279.71 258.48 284.269 260.155C288.829 261.829 292.568 265.197 294.71 269.557L316.56 316.107L326.56 293.877L344.35 302.767Z" fill="#0E1555"/>
<path d="M339.198 526.203L314.744 528.426L301.406 431.723C257.438 439.12 215.959 441.49 180.081 432.542C177.05 431.796 174.205 430.431 171.725 428.534C169.246 426.636 167.186 424.247 165.674 421.515C164.162 418.784 163.231 415.769 162.94 412.66C162.649 409.552 163.003 406.417 163.981 403.452C168.275 390.636 175.84 376.903 184.696 362.808L243.607 383.927L245.83 392.82L308.666 384.866C311.839 384.464 315.061 384.727 318.127 385.637C321.193 386.548 324.036 388.086 326.476 390.154C328.916 392.223 330.899 394.776 332.299 397.652C333.698 400.528 334.485 403.664 334.608 406.86L339.198 526.203Z" fill="#29292F"/>
<path d="M365.829 544.941C366.064 543.287 365.82 541.6 365.127 540.08C364.433 538.56 363.319 537.27 361.915 536.364L336.813 524.045L317.888 526.434L313.418 542.457C313.229 543.599 313.275 544.767 313.552 545.891C313.829 547.014 314.331 548.07 315.029 548.993C315.727 549.916 316.606 550.687 317.611 551.26C318.617 551.833 319.728 552.195 320.878 552.324L356.193 552.401C358.454 552.655 360.725 552.019 362.524 550.626C364.323 549.233 365.509 547.194 365.829 544.941V544.941Z" fill="#29292F"/>
<path d="M345.375 513.839L320.922 516.062L307.583 419.359C263.616 426.756 222.136 429.125 186.259 420.177C183.227 419.432 180.382 418.067 177.903 416.17C175.423 414.272 173.363 411.883 171.851 409.151C170.339 406.419 169.408 403.405 169.117 400.296C168.826 397.188 169.18 394.052 170.158 391.087C174.452 378.272 182.017 364.539 190.873 350.444L249.784 371.563L252.007 380.455L314.843 372.501C318.016 372.1 321.238 372.363 324.304 373.273C327.37 374.184 330.214 375.722 332.653 377.79C335.093 379.859 337.076 382.412 338.476 385.288C339.876 388.164 340.662 391.299 340.785 394.495L345.375 513.839Z" fill="#29292F"/>
<path d="M372.006 532.577C372.241 530.922 371.998 529.236 371.304 527.715C370.61 526.195 369.496 524.906 368.092 523.999L342.991 511.681L324.065 514.07L319.596 530.093C319.407 531.235 319.452 532.403 319.729 533.526C320.006 534.65 320.509 535.705 321.206 536.629C321.904 537.552 322.783 538.323 323.788 538.896C324.794 539.468 325.905 539.83 327.055 539.96L362.37 540.037C364.631 540.291 366.902 539.654 368.701 538.261C370.5 536.869 371.686 534.829 372.006 532.577V532.577Z" fill="#29292F"/>
<path d="M300.914 249.295C317.489 249.295 330.925 235.859 330.925 219.284C330.925 202.709 317.489 189.273 300.914 189.273C284.339 189.273 270.903 202.709 270.903 219.284C270.903 235.859 284.339 249.295 300.914 249.295Z" fill="#7D503B"/>
<path d="M299.803 280.418L265.345 275.972L278.683 234.845H312.029L299.803 280.418Z" fill="#7D503B"/>
<path d="M309.18 321.887C307.432 326.741 304.899 331.275 301.68 335.307C297.093 340.937 291.581 345.746 285.38 349.527C284.3 350.227 283.18 350.897 282.02 351.557L275.4 357.197L252.01 377.117L187.54 352.667C201.76 321.067 219.5 296.087 239.83 275.967C244.054 269.772 250.075 265.02 257.082 262.353C264.089 259.685 271.746 259.229 279.02 261.047L303.14 267.077C311.72 287.327 314.91 305.947 309.18 321.887Z" fill="#0E1555"/>
<path d="M319.764 276.361C319.326 276.79 319.076 277.375 319.067 277.988C319.058 278.601 319.291 279.193 319.716 279.635C320.458 279.956 335.165 296.716 336.068 295.562C336.376 295.565 336.681 295.507 336.966 295.391C337.251 295.275 337.51 295.103 337.728 294.886L382.6 250.208C382.846 249.964 383.034 249.669 383.15 249.343C383.266 249.017 383.308 248.669 383.272 248.324C384.483 247.189 365.175 235.748 364.585 235.126C364.143 234.836 363.616 234.705 363.09 234.757C362.564 234.809 362.072 235.039 361.696 235.41L319.764 276.361Z" fill="#141414"/>
<path d="M378.753 247.848L376.927 246.684C377.11 247.026 377.173 247.42 377.107 247.803C377.04 248.186 376.849 248.536 376.562 248.797C376.275 249.059 375.909 249.218 375.522 249.249C375.134 249.28 374.748 249.181 374.423 248.968L362.607 240.844C362.342 240.657 362.135 240.4 362.008 240.103C361.88 239.805 361.838 239.477 361.886 239.157C361.933 238.837 362.069 238.536 362.277 238.288C362.486 238.04 362.759 237.855 363.066 237.753C362.599 237.594 361.843 236.644 361.335 237.242L321.584 276.307C320.167 276.996 336.027 290.74 336.036 291.279C337.219 292.599 377.995 248.86 378.862 248.83C378.928 248.763 378.979 248.681 379.011 248.592C379.042 248.502 379.053 248.407 379.042 248.313C379.032 248.219 379.001 248.128 378.951 248.047C378.901 247.967 378.833 247.899 378.753 247.848V247.848Z" fill="white"/>
<path d="M332.874 267.681L345.068 279.178L374.074 250.521L359.353 240.94L332.874 267.681Z" fill="#4791CE"/>
<path d="M372.947 257.594C373.027 257.67 373.134 257.713 373.245 257.713C373.356 257.713 373.463 257.67 373.544 257.594C373.677 257.222 376.773 254.968 376.08 254.46C375.999 254.384 375.893 254.341 375.781 254.341C375.67 254.341 375.563 254.383 375.483 254.46C375.349 254.831 372.253 257.086 372.947 257.594Z" fill="#0E1555"/>
<path d="M369.271 261.867C369.404 261.495 372.501 259.241 371.807 258.733C371.291 258.046 369.055 261.129 368.674 261.27C368.281 261.652 368.89 262.258 369.271 261.867Z" fill="#0E1555"/>
<path d="M336.004 277.55C336.058 281.246 330.253 281.246 330.307 277.55C330.253 273.854 336.059 273.854 336.004 277.55Z" fill="#4791CE"/>
<path opacity="0.2" d="M301.68 335.307C297.093 340.937 291.581 345.746 285.38 349.527C284.3 350.227 283.18 350.897 282.02 351.557L275.4 357.197C262.26 339.927 263 287.457 263 287.457L283 289.457L301.68 335.307Z" fill="black"/>
<path d="M340.929 321.545L327.591 314.875L338.706 284.864L341.635 269.729C342.016 267.763 342.906 265.931 344.216 264.416C345.527 262.902 347.212 261.757 349.103 261.098C350.994 260.439 353.025 260.287 354.993 260.659C356.961 261.03 358.798 261.912 360.318 263.215V263.215C362.572 265.146 363.986 267.878 364.264 270.833C364.542 273.788 363.661 276.735 361.807 279.052L350.933 292.645L340.929 321.545Z" fill="#7D503B"/>
<path d="M327.591 309.318L345.375 318.21L331.879 360.499C330.91 363.536 329.172 366.271 326.835 368.438C324.498 370.606 321.64 372.133 318.539 372.871V372.871C314.716 373.782 310.701 373.451 307.079 371.926C303.456 370.402 300.413 367.763 298.39 364.393L262.601 303.049C260.065 298.822 259.282 293.77 260.42 288.974C261.558 284.178 264.526 280.016 268.691 277.379C270.93 275.96 273.444 275.029 276.067 274.646C278.691 274.263 281.365 274.437 283.917 275.156C286.469 275.875 288.841 277.124 290.878 278.82C292.916 280.516 294.573 282.623 295.743 285.002L317.587 331.548L327.591 309.318Z" fill="#0E1555"/>
<path d="M312.21 207.595C314.656 209.634 317.416 211.263 320.384 212.418C323.397 213.429 326.895 213.451 329.584 211.758C332.756 209.761 334.203 205.705 333.878 201.971C333.553 198.237 331.721 194.792 329.533 191.749C325.505 186.146 320.208 181.575 314.076 178.41C307.944 175.245 301.15 173.575 294.249 173.537C287.348 173.499 280.536 175.093 274.369 178.191C268.202 181.288 262.855 185.8 258.765 191.358C255.957 195.173 253.732 199.603 253.489 204.334C253.06 212.672 258.765 220.455 258.155 228.781C257.639 235.823 252.584 241.856 246.598 245.6C240.611 249.345 233.693 251.243 226.999 253.492C220.306 255.74 213.537 258.515 208.583 263.546C203.629 268.578 200.896 276.386 203.615 282.902C205.85 288.257 211.16 291.662 216.484 293.969C230.761 300.082 246.797 300.684 261.492 295.658C266.909 293.78 272.825 290.022 272.908 284.289C272.943 281.8 271.823 279.464 271.151 277.068C270.479 274.672 270.353 271.814 272.039 269.984C274.131 267.715 277.997 268.238 280.497 270.048C282.997 271.857 284.622 274.603 286.685 276.899C290.601 281.258 296.538 284.043 302.341 283.222C308.143 282.401 313.388 277.458 313.628 271.603C314.04 261.544 301.438 255.246 300.068 245.273C299.153 238.612 303.49 232.518 307.248 226.942C311.006 221.367 314.501 214.381 311.87 208.194" fill="#29292F"/>
<path d="M150.5 442.957C146.374 442.955 142.313 441.932 138.678 439.98C135.043 438.028 131.948 435.207 129.667 431.769C127.387 428.33 125.993 424.381 125.609 420.273C125.225 416.165 125.863 412.026 127.466 408.225L131.149 409.783C129.541 413.601 129.096 417.809 129.872 421.878C130.648 425.947 132.609 429.697 135.509 432.655C138.409 435.613 142.119 437.647 146.172 438.503C150.225 439.359 154.441 438.998 158.29 437.465L159.774 441.18C156.824 442.359 153.676 442.962 150.5 442.957V442.957Z" fill="#141414"/>
<path d="M124.496 416.795C121.682 416.704 119.013 415.523 117.054 413.5C115.095 411.477 114 408.771 114 405.955V226.457C114.943 225.513 116.078 224.783 117.328 224.317C118.578 223.851 119.914 223.66 121.244 223.757C122.575 223.854 123.869 224.237 125.038 224.879C126.208 225.521 127.225 226.408 128.021 227.478C179.139 296.601 181.391 358.585 132.957 413.165C131.899 414.354 130.593 415.295 129.131 415.922C127.669 416.55 126.086 416.848 124.496 416.795V416.795Z" fill="#4791CE"/>
<path d="M189 442.457H158V434.457L183 427.457L189 442.457Z" fill="#141414"/>
<path d="M178 434.457H260C260 438.965 258.209 443.289 255.021 446.477C251.833 449.666 247.509 451.457 243 451.457H195C190.491 451.457 186.167 449.666 182.979 446.477C179.791 443.289 178 438.965 178 434.457V434.457Z" fill="#141414"/>
<path d="M228 449.457H217V458.457H228V449.457Z" fill="#141414"/>
<path d="M233 456.457H213V483.457H233V456.457Z" fill="#141414"/>
<path d="M231.5 497.957H214.5V533.957H231.5V497.957Z" fill="#141414"/>
<path d="M240.5 501.957H205.5L210.5 479.957H240.5V501.957Z" fill="#141414"/>
<path d="M209.5 499.957L138.5 532.957L137.5 537.957H127.5L127.978 530.307C128.137 527.765 128.958 525.308 130.359 523.181C131.76 521.053 133.692 519.329 135.965 518.179L211.5 479.957L209.5 499.957Z" fill="#141414"/>
<path d="M236.5 499.957L311.5 532.957L312.5 537.957H322.5L322.022 530.307C321.863 527.765 321.042 525.308 319.641 523.181C318.24 521.053 316.308 519.329 314.035 518.179L240.5 479.957L236.5 499.957Z" fill="#141414"/>
<path d="M131.5 558.957C137.575 558.957 142.5 554.032 142.5 547.957C142.5 541.882 137.575 536.957 131.5 536.957C125.425 536.957 120.5 541.882 120.5 547.957C120.5 554.032 125.425 558.957 131.5 558.957Z" fill="#141414"/>
<path d="M258.5 558.957C264.575 558.957 269.5 554.032 269.5 547.957C269.5 541.882 264.575 536.957 258.5 536.957C252.425 536.957 247.5 541.882 247.5 547.957C247.5 554.032 252.425 558.957 258.5 558.957Z" fill="#141414"/>
<path d="M317.5 558.957C323.575 558.957 328.5 554.032 328.5 547.957C328.5 541.882 323.575 536.957 317.5 536.957C311.425 536.957 306.5 541.882 306.5 547.957C306.5 554.032 311.425 558.957 317.5 558.957Z" fill="#141414"/>
<path d="M262.5 540.957L254.5 539.957L252.5 531.957L225.5 498.957L237.5 486.957L258.858 519.42C261.234 523.032 262.5 527.261 262.5 531.584V540.957Z" fill="#141414"/>
<path d="M295.342 436.957H162.658C160.93 436.957 159.219 436.616 157.622 435.955C156.026 435.294 154.576 434.325 153.354 433.103C152.132 431.881 151.163 430.431 150.502 428.834C149.84 427.238 149.5 425.527 149.5 423.799V416.667C149.501 413.645 150.17 410.66 151.459 407.926C152.747 405.193 154.624 402.777 156.954 400.853C179.352 382.342 197.482 366.601 222.5 367.856C244.115 368.94 271.439 396.141 295.001 404.533C298.963 405.961 302.387 408.578 304.803 412.027C307.22 415.476 308.511 419.588 308.5 423.799V423.799C308.5 425.527 308.16 427.238 307.498 428.834C306.837 430.431 305.868 431.881 304.646 433.103C303.424 434.325 301.974 435.294 300.378 435.955C298.781 436.616 297.07 436.957 295.342 436.957Z" fill="#4791CE"/>
<path d="M858.354 333.191H484.893C483.059 333.189 481.301 332.459 480.005 331.163C478.708 329.866 477.979 328.108 477.977 326.275V6.91594C477.979 5.08238 478.708 3.32454 480.005 2.02802C481.301 0.731492 483.059 0.00215428 484.893 0H858.354C860.188 0.00215428 861.945 0.731491 863.242 2.02802C864.539 3.32454 865.268 5.08238 865.27 6.91594V326.275C865.268 328.108 864.539 329.866 863.242 331.163C861.945 332.459 860.188 333.189 858.354 333.191ZM484.893 2.76639C483.792 2.76759 482.738 3.20514 481.96 3.98308C481.182 4.76101 480.744 5.81577 480.743 6.91594V326.275C480.744 327.375 481.182 328.43 481.96 329.208C482.738 329.986 483.792 330.423 484.893 330.424H858.354C859.454 330.423 860.509 329.986 861.287 329.208C862.065 328.43 862.502 327.375 862.504 326.275V6.91594C862.502 5.81578 862.065 4.76103 861.287 3.98309C860.509 3.20516 859.454 2.76759 858.354 2.76639H484.893Z" fill="#0E1555"/>
<path d="M542.921 304.572C558.48 304.572 571.093 291.959 571.093 276.4C571.093 260.841 558.48 248.228 542.921 248.228C527.362 248.228 514.749 260.841 514.749 276.4C514.749 291.959 527.362 304.572 542.921 304.572Z" fill="#0E1555"/>
<path d="M607.985 257.619C606.739 257.619 605.545 258.114 604.664 258.994C603.784 259.875 603.289 261.069 603.289 262.314C603.289 263.559 603.784 264.754 604.664 265.634C605.545 266.515 606.739 267.01 607.985 267.01H829.335C830.58 267.01 831.775 266.515 832.655 265.634C833.536 264.754 834.031 263.559 834.031 262.314C834.031 261.069 833.536 259.875 832.655 258.994C831.775 258.114 830.58 257.619 829.335 257.619H607.985Z" fill="#0E1555"/>
<path d="M607.985 285.791C607.367 285.79 606.756 285.911 606.186 286.146C605.615 286.382 605.097 286.727 604.66 287.164C604.223 287.6 603.877 288.118 603.64 288.688C603.404 289.258 603.282 289.869 603.282 290.486C603.282 291.103 603.404 291.714 603.64 292.285C603.877 292.855 604.223 293.373 604.66 293.809C605.097 294.245 605.615 294.59 606.186 294.826C606.756 295.062 607.367 295.182 607.985 295.181H703.232C704.476 295.18 705.669 294.684 706.548 293.804C707.427 292.923 707.921 291.73 707.921 290.486C707.921 289.242 707.427 288.049 706.548 287.168C705.669 286.288 704.476 285.793 703.232 285.791H607.985Z" fill="#0E1555"/>
<path d="M947.084 221.802H573.622C571.789 221.8 570.031 221.071 568.735 219.774C567.438 218.478 566.709 216.72 566.707 214.886V50.9919C566.709 49.1584 567.438 47.4005 568.734 46.104C570.031 44.8074 571.789 44.0781 573.622 44.0759H947.084C948.918 44.0781 950.675 44.8074 951.972 46.104C953.269 47.4005 953.998 49.1584 954 50.9919V214.886C953.998 216.72 953.269 218.478 951.972 219.774C950.675 221.071 948.918 221.8 947.084 221.802Z" fill="#4791CE"/>
<path d="M649.678 101.202C648.433 101.202 647.238 101.697 646.358 102.578C645.477 103.458 644.983 104.652 644.983 105.898C644.983 107.143 645.477 108.337 646.358 109.218C647.238 110.098 648.433 110.593 649.678 110.593H871.029C872.274 110.593 873.468 110.098 874.349 109.218C875.229 108.337 875.724 107.143 875.724 105.898C875.724 104.652 875.229 103.458 874.349 102.578C873.468 101.697 872.274 101.202 871.029 101.202H649.678Z" fill="white"/>
<path d="M649.678 128.409C648.433 128.409 647.238 128.903 646.358 129.784C645.477 130.664 644.983 131.859 644.983 133.104C644.983 134.349 645.477 135.544 646.358 136.424C647.238 137.305 648.433 137.799 649.678 137.799H871.029C872.274 137.799 873.468 137.305 874.349 136.424C875.229 135.544 875.724 134.349 875.724 133.104C875.724 131.859 875.229 130.664 874.349 129.784C873.468 128.903 872.274 128.409 871.029 128.409H649.678Z" fill="white"/>
<path d="M649.678 155.285C648.433 155.285 647.238 155.78 646.358 156.66C645.477 157.541 644.983 158.735 644.983 159.98C644.983 161.226 645.477 162.42 646.358 163.3C647.238 164.181 648.433 164.676 649.678 164.676H744.926C746.171 164.676 747.365 164.181 748.246 163.3C749.126 162.42 749.621 161.226 749.621 159.98C749.621 158.735 749.126 157.541 748.246 156.66C747.365 155.78 746.171 155.285 744.926 155.285H649.678Z" fill="white"/>
</svg>
